<svg xmlns="http://www.w3.org/2000/svg" width="560" height="320" font-family="-apple-system,Segoe UI,Helvetica,Arial,sans-serif">
<rect width="560" height="320" fill="white"/>
<text x="280.0" y="26" text-anchor="middle" font-size="16" font-weight="bold" fill="#333333">Time to popcount a bitmap container</text>
<line x1="60" y1="270.0" x2="540" y2="270.0" stroke="#d0d0d0" stroke-width="1"/>
<text x="52" y="274.0" text-anchor="end" font-size="12" fill="#333333">0</text>
<line x1="60" y1="221.1" x2="540" y2="221.1" stroke="#d0d0d0" stroke-width="1"/>
<text x="52" y="225.1" text-anchor="end" font-size="12" fill="#333333">10</text>
<line x1="60" y1="172.2" x2="540" y2="172.2" stroke="#d0d0d0" stroke-width="1"/>
<text x="52" y="176.2" text-anchor="end" font-size="12" fill="#333333">20</text>
<line x1="60" y1="123.3" x2="540" y2="123.3" stroke="#d0d0d0" stroke-width="1"/>
<text x="52" y="127.3" text-anchor="end" font-size="12" fill="#333333">30</text>
<line x1="60" y1="74.4" x2="540" y2="74.4" stroke="#d0d0d0" stroke-width="1"/>
<text x="52" y="78.4" text-anchor="end" font-size="12" fill="#333333">40</text>
<text x="16" y="160.0" text-anchor="middle" font-size="12" fill="#333333" transform="rotate(-90 16 160.0)">nanoseconds (lower is better)</text>
<rect x="87.0" y="73.5" width="66.0" height="196.5" fill="#c0392b"/>
<text x="120.0" y="67.5" text-anchor="middle" font-size="12" font-weight="bold" fill="#333333">40.2</text>
<text x="120.0" y="290.0" text-anchor="middle" font-size="13" fill="#333333">GOAMD64=v1</text>
<rect x="207.0" y="158.5" width="66.0" height="111.5" fill="#2e8b57"/>
<text x="240.0" y="152.5" text-anchor="middle" font-size="12" font-weight="bold" fill="#333333">22.8</text>
<text x="240.0" y="290.0" text-anchor="middle" font-size="13" fill="#333333">GOAMD64=v2</text>
<rect x="327.0" y="159.2" width="66.0" height="110.8" fill="#2e8b57"/>
<text x="360.0" y="153.2" text-anchor="middle" font-size="12" font-weight="bold" fill="#333333">22.7</text>
<text x="360.0" y="290.0" text-anchor="middle" font-size="13" fill="#333333">GOAMD64=v3</text>
<rect x="447.0" y="158.4" width="66.0" height="111.6" fill="#2e8b57"/>
<text x="480.0" y="152.4" text-anchor="middle" font-size="12" font-weight="bold" fill="#333333">22.8</text>
<text x="480.0" y="290.0" text-anchor="middle" font-size="13" fill="#333333">GOAMD64=v4</text>
</svg>